<svg id="Layer_1" data-name="Layer 1" xmlns="http://www.w3.org/2000/svg" xmlns:xlink="http://www.w3.org/1999/xlink" viewBox="0 0 139.66 161.32"><defs><style>.cls-1{fill:#ed1c24;}.cls-2{fill:#2b3990;}.cls-3{fill:#6d6e71;}.cls-4{fill:url(#New_Gradient_Swatch_copy_9);}.cls-5{fill:url(#New_Gradient_Swatch_copy_9-2);}.cls-6{fill:url(#linear-gradient);}.cls-7{fill:url(#linear-gradient-2);}.cls-8{fill:url(#linear-gradient-3);}.cls-9{fill:url(#linear-gradient-4);}.cls-10{fill:url(#linear-gradient-5);}.cls-11{fill:url(#linear-gradient-6);}.cls-12{fill:url(#linear-gradient-7);}.cls-13{fill:url(#linear-gradient-8);}.cls-14{fill:url(#linear-gradient-9);}.cls-15{fill:url(#linear-gradient-10);}.cls-16{fill:url(#linear-gradient-11);}.cls-17{fill:url(#linear-gradient-12);}.cls-18{fill:url(#linear-gradient-13);}.cls-19{isolation:isolate;}.cls-20{fill:#191f65;}.cls-21{fill:#111356;}.cls-22{fill:url(#New_Gradient_Swatch_copy_9-3);}.cls-23{fill:url(#radial-gradient);}.cls-24{fill:url(#radial-gradient-2);}.cls-25{fill:#1b75bc;}.cls-26{fill:url(#radial-gradient-3);}.cls-27{fill:url(#radial-gradient-4);}.cls-28{fill:url(#radial-gradient-5);}.cls-29{fill:url(#radial-gradient-6);}.cls-30{fill:url(#radial-gradient-7);}.cls-31{fill:url(#radial-gradient-8);}.cls-32{fill:url(#radial-gradient-9);}.cls-33{fill:url(#radial-gradient-10);}.cls-34{fill:url(#radial-gradient-11);}.cls-35{fill:url(#radial-gradient-12);}.cls-36{fill:url(#radial-gradient-13);}.cls-37{fill:url(#radial-gradient-14);}.cls-38{fill:url(#radial-gradient-15);}.cls-39{fill:url(#radial-gradient-16);}.cls-40{fill:url(#radial-gradient-17);}.cls-41{fill:url(#radial-gradient-18);}.cls-42{fill:url(#radial-gradient-19);}.cls-43{fill:url(#radial-gradient-20);}.cls-44{fill:url(#radial-gradient-21);}.cls-45{fill:url(#radial-gradient-22);}.cls-46{fill:url(#radial-gradient-23);}.cls-47{fill:url(#radial-gradient-24);}.cls-48{fill:url(#radial-gradient-25);}.cls-49{fill:url(#radial-gradient-26);}.cls-50{fill:url(#radial-gradient-27);}</style><linearGradient id="New_Gradient_Swatch_copy_9" x1="18.58" y1="154.56" x2="18.58" y2="166.51" gradientUnits="userSpaceOnUse"><stop offset="0" stop-color="#1b75bc"/><stop offset="1" stop-color="#2b3990"/></linearGradient><linearGradient id="New_Gradient_Swatch_copy_9-2" x1="28.56" y1="154.57" x2="28.56" y2="166.48" xlink:href="#New_Gradient_Swatch_copy_9"/><linearGradient id="linear-gradient" x1="26.98" y1="140.13" x2="26.98" y2="151.76" xlink:href="#New_Gradient_Swatch_copy_9"/><linearGradient id="linear-gradient-2" x1="50.54" y1="154.69" x2="50.54" y2="166.33" xlink:href="#New_Gradient_Swatch_copy_9"/><linearGradient id="linear-gradient-3" x1="46.54" y1="140.13" x2="46.54" y2="151.76" xlink:href="#New_Gradient_Swatch_copy_9"/><linearGradient id="linear-gradient-4" x1="70.14" y1="154.69" x2="70.14" y2="166.33" xlink:href="#New_Gradient_Swatch_copy_9"/><linearGradient id="linear-gradient-5" x1="79.53" y1="154.56" x2="79.53" y2="166.51" xlink:href="#New_Gradient_Swatch_copy_9"/><linearGradient id="linear-gradient-6" x1="74.24" y1="140.13" x2="74.24" y2="151.76" xlink:href="#New_Gradient_Swatch_copy_9"/><linearGradient id="linear-gradient-7" x1="106.1" y1="149.05" x2="106.1" y2="151.76" xlink:href="#New_Gradient_Swatch_copy_9"/><linearGradient id="linear-gradient-8" x1="110.61" y1="149.05" x2="110.61" y2="154.04" xlink:href="#New_Gradient_Swatch_copy_9"/><linearGradient id="linear-gradient-9" x1="118.55" y1="140.13" x2="118.55" y2="151.76" xlink:href="#New_Gradient_Swatch_copy_9"/><linearGradient id="linear-gradient-10" x1="125.26" y1="140.13" x2="125.26" y2="151.76" xlink:href="#New_Gradient_Swatch_copy_9"/><linearGradient id="linear-gradient-11" x1="149.02" y1="154.69" x2="149.02" y2="166.33" xlink:href="#New_Gradient_Swatch_copy_9"/><linearGradient id="linear-gradient-12" x1="100.96" y1="154.45" x2="100.96" y2="166.59" xlink:href="#New_Gradient_Swatch_copy_9"/><linearGradient id="linear-gradient-13" x1="111.67" y1="154.43" x2="111.67" y2="166.59" xlink:href="#New_Gradient_Swatch_copy_9"/><linearGradient id="New_Gradient_Swatch_copy_9-3" x1="69.27" y1="158.98" x2="69.27" y2="160.59" xlink:href="#New_Gradient_Swatch_copy_9"/><radialGradient id="radial-gradient" cx="86.42" cy="-24.4" r="109.18" gradientTransform="translate(59.66 132.18) scale(0.41 0.42)" gradientUnits="userSpaceOnUse"><stop offset="0" stop-color="#27aae1"/><stop offset="1" stop-color="#2b3990"/></radialGradient><radialGradient id="radial-gradient-2" cx="150.58" cy="-172.33" r="133.56" xlink:href="#radial-gradient"/><radialGradient id="radial-gradient-3" cx="142.13" cy="-135.43" r="172.75" gradientTransform="translate(59.66 132.18) scale(0.41 0.42)" gradientUnits="userSpaceOnUse"><stop offset="0" stop-color="#00b3f0"/><stop offset="0.34" stop-color="#269cce"/><stop offset="1" stop-color="#2b3990"/></radialGradient><radialGradient id="radial-gradient-4" cx="-62.45" cy="-88.56" r="280.68" xlink:href="#radial-gradient"/><radialGradient id="radial-gradient-5" cx="35.53" cy="-11.42" r="202.07" xlink:href="#radial-gradient"/><radialGradient id="radial-gradient-6" cx="59.49" cy="-117.19" r="25.33" xlink:href="#radial-gradient"/><radialGradient id="radial-gradient-7" cx="76.26" cy="-113.29" r="47.37" gradientTransform="translate(59.66 132.18) scale(0.41 0.42)" gradientUnits="userSpaceOnUse"><stop offset="0" stop-color="#1b75bc"/><stop offset="0.39" stop-color="#27aae1"/><stop offset="1" stop-color="#2b3990"/></radialGradient><radialGradient id="radial-gradient-8" cx="290.07" cy="733.91" r="25.33" gradientTransform="matrix(0.34, 0.23, -0.22, 0.35, 152.73, -243.29)" xlink:href="#radial-gradient"/><radialGradient id="radial-gradient-9" cx="306.84" cy="737.81" r="47.37" gradientTransform="matrix(0.34, 0.23, -0.22, 0.35, 152.73, -243.29)" xlink:href="#radial-gradient-7"/><radialGradient id="radial-gradient-10" cx="941.76" cy="1327.91" r="25.33" gradientTransform="matrix(0.17, 0.38, -0.37, 0.18, 426.85, -508.42)" xlink:href="#radial-gradient"/><radialGradient id="radial-gradient-11" cx="958.53" cy="1331.81" r="47.37" gradientTransform="matrix(0.17, 0.38, -0.37, 0.18, 426.85, -508.42)" xlink:href="#radial-gradient-7"/><radialGradient id="radial-gradient-12" cx="1810.53" cy="1478.82" r="25.33" gradientTransform="matrix(-0.05, 0.42, -0.4, -0.05, 796.19, -580.21)" xlink:href="#radial-gradient"/><radialGradient id="radial-gradient-13" cx="1827.3" cy="1482.72" r="47.37" gradientTransform="matrix(-0.05, 0.42, -0.4, -0.05, 796.19, -580.21)" xlink:href="#radial-gradient-7"/><radialGradient id="radial-gradient-14" cx="2624.37" cy="1139.4" r="25.33" gradientTransform="matrix(-0.26, 0.32, -0.31, -0.27, 1145.12, -436.18)" xlink:href="#radial-gradient"/><radialGradient id="radial-gradient-15" cx="2641.14" cy="1143.3" r="47.37" gradientTransform="matrix(-0.26, 0.32, -0.31, -0.27, 1145.12, -436.18)" xlink:href="#radial-gradient-7"/><radialGradient id="radial-gradient-16" cx="3128.47" cy="415.92" r="25.33" gradientTransform="matrix(-0.39, 0.13, -0.12, -0.4, 1364.38, -121.43)" xlink:href="#radial-gradient"/><radialGradient id="radial-gradient-17" cx="3145.24" cy="419.82" r="47.37" gradientTransform="matrix(-0.39, 0.13, -0.12, -0.4, 1364.38, -121.43)" xlink:href="#radial-gradient-7"/><radialGradient id="radial-gradient-18" cx="3164.99" cy="-465.11" r="25.33" gradientTransform="matrix(-0.39, -0.11, 0.11, -0.41, 1385.32, 265.5)" xlink:href="#radial-gradient"/><radialGradient id="radial-gradient-19" cx="3181.75" cy="-461.21" r="47.37" gradientTransform="matrix(-0.39, -0.11, 0.11, -0.41, 1385.32, 265.5)" xlink:href="#radial-gradient-7"/><radialGradient id="radial-gradient-20" cx="2722.49" cy="-1227.83" r="25.33" gradientTransform="matrix(-0.28, -0.31, 0.3, -0.28, 1201.4, 603.46)" xlink:href="#radial-gradient"/><radialGradient id="radial-gradient-21" cx="2739.26" cy="-1223.93" r="47.37" gradientTransform="matrix(-0.28, -0.31, 0.3, -0.28, 1201.4, 603.46)" xlink:href="#radial-gradient-7"/><radialGradient id="radial-gradient-22" cx="1939.54" cy="-1633.44" r="25.33" gradientTransform="matrix(-0.07, -0.41, 0.4, -0.07, 870.18, 786.64)" xlink:href="#radial-gradient"/><radialGradient id="radial-gradient-23" cx="1956.31" cy="-1629.54" r="47.37" gradientTransform="matrix(-0.07, -0.41, 0.4, -0.07, 870.18, 786.64)" xlink:href="#radial-gradient-7"/><radialGradient id="radial-gradient-24" cx="1061.25" cy="-1554.94" r="25.33" gradientTransform="matrix(0.16, -0.39, 0.38, 0.16, 495.39, 757.67)" xlink:href="#radial-gradient"/><radialGradient id="radial-gradient-25" cx="1078.02" cy="-1551.04" r="47.37" gradientTransform="matrix(0.16, -0.39, 0.38, 0.16, 495.39, 757.67)" xlink:href="#radial-gradient-7"/><radialGradient id="radial-gradient-26" cx="362.64" cy="-1016.91" r="25.33" gradientTransform="matrix(0.33, -0.24, 0.23, 0.34, 194.35, 525.64)" xlink:href="#radial-gradient"/><radialGradient id="radial-gradient-27" cx="379.41" cy="-1013.01" r="47.37" gradientTransform="matrix(0.33, -0.24, 0.23, 0.34, 194.35, 525.64)" xlink:href="#radial-gradient-7"/></defs><title>CSE FInal LOGO - Copy</title><path class="cls-1" d="M20.85,162.53l-.22-.07-.06.23a2,2,0,0,1-.68,1.09,1.81,1.81,0,0,1-1.16.39,1.59,1.59,0,0,1-1.49-.82,5.72,5.72,0,0,1-.51-2.77,6.32,6.32,0,0,1,.51-2.9,1.55,1.55,0,0,1,1.45-.88,1.52,1.52,0,0,1,1,.36,2.09,2.09,0,0,1,.61,1.09l.06.23.22-.06L22.5,158l.23-.06-.05-.23a3.88,3.88,0,0,0-1.34-2.3,4,4,0,0,0-2.54-.8,4,4,0,0,0-3.41,1.59,7.22,7.22,0,0,0-1.19,4.42,7.29,7.29,0,0,0,1.12,4.4,3.93,3.93,0,0,0,3.37,1.54,4.38,4.38,0,0,0,2.69-.81,4.25,4.25,0,0,0,1.51-2.34l.07-.24-.23-.06Z" transform="translate(-14.2 -14.57)"/><path class="cls-1" d="M29.88,159.45l-.91-.38c-1.12-.45-1.71-.93-1.71-1.37a.83.83,0,0,1,.29-.68,1.39,1.39,0,0,1,.89-.26,1.68,1.68,0,0,1,1,.29,2.45,2.45,0,0,1,.73,1l.1.2.2-.08,1.84-.69.22-.09-.08-.22A3.7,3.7,0,0,0,31,155.23a4.23,4.23,0,0,0-2.42-.66,4,4,0,0,0-2.71.9,3,3,0,0,0-1.06,2.38,3.23,3.23,0,0,0,.36,1.53,2.91,2.91,0,0,0,1,1.13,11.92,11.92,0,0,0,2.26,1l.35.13a3.68,3.68,0,0,1,1.18.64.94.94,0,0,1,.28.69,1.05,1.05,0,0,1-.38.85,1.8,1.8,0,0,1-1.14.33,1.74,1.74,0,0,1-1.11-.36,3.29,3.29,0,0,1-.88-1.22l-.1-.2-.21.09-1.84.85-.21.09.08.22a4.35,4.35,0,0,0,1.66,2.1,4.73,4.73,0,0,0,2.65.72,4.12,4.12,0,0,0,2.85-.95,3.35,3.35,0,0,0,1.06-2.61,3.17,3.17,0,0,0-.62-2A5.78,5.78,0,0,0,29.88,159.45Z" transform="translate(-14.2 -14.57)"/><polygon class="cls-2" points="25.62 149.37 25.62 146.84 29.03 146.84 29.26 146.84 29.26 146.6 29.26 144.82 29.26 144.57 29.03 144.57 25.62 144.57 25.62 142.42 30.38 142.42 30.62 142.42 30.62 142.18 30.62 140.37 30.62 140.13 30.38 140.13 23.36 140.13 23.13 140.13 23.13 140.37 23.13 151.52 23.13 151.76 23.36 151.76 30.6 151.76 30.84 151.76 30.84 151.52 30.84 149.62 30.84 149.37 30.6 149.37 25.62 149.37"/><path class="cls-2" d="M52.77,154.69h-.23v6.24c0,.26,0,.52,0,.76-.2-.43-.41-.86-.64-1.27l-3.11-5.6-.07-.13H46.19v11.64h2.36v-6.41c0-.28,0-.54,0-.79l.06.14c.21.46.41.86.59,1.19l3.38,5.75.07.12h2.25V154.69H52.77Z" transform="translate(-14.2 -14.57)"/><polygon class="cls-2" points="45.18 149.37 45.18 146.84 48.58 146.84 48.82 146.84 48.82 146.6 48.82 144.82 48.82 144.57 48.58 144.57 45.18 144.57 45.18 142.42 49.94 142.42 50.17 142.42 50.17 142.18 50.17 140.37 50.17 140.13 49.94 140.13 42.92 140.13 42.68 140.13 42.68 140.37 42.68 151.52 42.68 151.76 42.92 151.76 50.16 151.76 50.39 151.76 50.39 151.52 50.39 149.62 50.39 149.37 50.16 149.37 45.18 149.37"/><path class="cls-2" d="M72.06,161.23a2.75,2.75,0,0,0,1.34-1,3.8,3.8,0,0,0-.53-4.65,5,5,0,0,0-3.2-.88h-3.9v11.64h2.46V161.8h1.48l2,4.39.06.14H74.5l-.16-.35Zm-.62-3a1.19,1.19,0,0,1-.37,1,2.12,2.12,0,0,1-1.3.32H68.23v-2.61h1.54a2,2,0,0,1,1.3.33A1.16,1.16,0,0,1,71.44,158.24Z" transform="translate(-14.2 -14.57)"/><path class="cls-2" d="M79.76,160.18h-.23v2.24h2a2.44,2.44,0,0,1-.59,1.24,1.68,1.68,0,0,1-1.27.53,1.65,1.65,0,0,1-1.51-.9,5.45,5.45,0,0,1-.57-2.77,5.62,5.62,0,0,1,.57-2.84,1.7,1.7,0,0,1,1.56-.89,1.67,1.67,0,0,1,1,.33,2.55,2.55,0,0,1,.75,1.07l.08.19.19,0,1.85-.47.24-.06-.08-.25a4.11,4.11,0,0,0-1.47-2.22,4.65,4.65,0,0,0-6,.79A6.68,6.68,0,0,0,75,160.39a7.68,7.68,0,0,0,1.14,4.47,3.71,3.71,0,0,0,3.21,1.65,4.14,4.14,0,0,0,1.75-.35,3.12,3.12,0,0,0,.92-.66l.06.61,0,.22H84v-6.15H79.76Z" transform="translate(-14.2 -14.57)"/><polygon class="cls-2" points="78.75 140.13 78.37 140.13 76.38 140.13 76.23 140.13 76.16 140.27 74.33 144.42 72.46 140.27 72.4 140.13 72.25 140.13 70.1 140.13 69.73 140.13 69.89 140.47 73 147.17 73 151.52 73 151.76 73.24 151.76 75.28 151.76 75.52 151.76 75.52 151.52 75.52 147.15 78.59 140.47 78.75 140.13"/><polygon class="cls-2" points="105.08 149.05 104.85 149.05 104.85 149.29 104.85 151.52 104.85 151.76 105.08 151.76 107.12 151.76 107.36 151.76 107.36 151.52 107.36 149.29 107.36 149.05 107.12 149.05 105.08 149.05"/><polygon class="cls-2" points="109.59 149.05 109.36 149.05 109.36 149.29 109.36 151.47 109.36 151.71 109.59 151.71 110.09 151.71 109.47 153.73 109.37 154.04 109.69 154.04 110.63 154.04 110.78 154.04 110.84 153.9 111.85 151.71 111.87 151.66 111.87 151.61 111.87 149.29 111.87 149.05 111.63 149.05 109.59 149.05"/><polygon class="cls-2" points="117.54 149.37 117.54 140.37 117.54 140.13 117.3 140.13 115.23 140.13 115 140.13 115 140.37 115 151.52 115 151.76 115.23 151.76 121.86 151.76 122.1 151.76 122.1 151.52 122.1 149.62 122.1 149.37 121.86 149.37 117.54 149.37"/><polygon class="cls-2" points="121.39 140.13 121.16 140.13 121.16 140.37 121.16 142.21 121.16 142.45 121.39 142.45 123.99 142.45 123.99 151.52 123.99 151.76 124.23 151.76 126.28 151.76 126.52 151.76 126.52 151.52 126.52 142.45 129.12 142.45 129.36 142.45 129.36 142.21 129.36 140.37 129.36 140.13 129.12 140.13 121.39 140.13"/><path class="cls-2" d="M152.1,156.17a5.13,5.13,0,0,0-4-1.48H144.6v11.64h3.46a5.2,5.2,0,0,0,4-1.49,6.28,6.28,0,0,0,1.35-4.37A6.19,6.19,0,0,0,152.1,156.17Zm-1.19,4.3a4.33,4.33,0,0,1-.69,2.73,2.76,2.76,0,0,1-2.23.8h-.88v-7H148a2.82,2.82,0,0,1,2.23.81A4,4,0,0,1,150.91,160.47Z" transform="translate(-14.2 -14.57)"/><path class="cls-2" d="M103.56,162.49l2.09,1.13a4.69,4.69,0,0,1-1.72,2.22,4.9,4.9,0,0,1-2.75.75,4.41,4.41,0,0,1-3.65-1.54,7,7,0,0,1-1.25-4.54,6.89,6.89,0,0,1,1.31-4.44,4.38,4.38,0,0,1,3.59-1.62,4.65,4.65,0,0,1,2.73.79,4.37,4.37,0,0,1,1.63,2.26l-2.25,1a3.29,3.29,0,0,0-.77-1.34,1.65,1.65,0,0,0-1.16-.43,2,2,0,0,0-1.81,1,5.88,5.88,0,0,0-.58,3,5.29,5.29,0,0,0,.54,2.69,1.84,1.84,0,0,0,1.67.87,2.31,2.31,0,0,0,1.39-.42A3.38,3.38,0,0,0,103.56,162.49Z" transform="translate(-14.2 -14.57)"/><path class="cls-2" d="M106.81,160.51A7,7,0,0,1,108.1,156a4.77,4.77,0,0,1,7.15,0,8.42,8.42,0,0,1,0,8.94,4.75,4.75,0,0,1-7.14,0A7,7,0,0,1,106.81,160.51Zm2.71,0a5.69,5.69,0,0,0,.54,2.79,1.88,1.88,0,0,0,3.23,0,5.84,5.84,0,0,0,.53-2.8,5.56,5.56,0,0,0-.53-2.77,1.88,1.88,0,0,0-3.23,0A5.56,5.56,0,0,0,109.52,160.51Z" transform="translate(-14.2 -14.57)"/><path class="cls-3" d="M21.26,163l-.22-.07-.07.23a2,2,0,0,1-.68,1.09,1.78,1.78,0,0,1-1.15.39,1.59,1.59,0,0,1-1.49-.82,5.72,5.72,0,0,1-.51-2.77,6.35,6.35,0,0,1,.51-2.9,1.66,1.66,0,0,1,2.5-.52,2,2,0,0,1,.6,1.09l.06.23.23-.06,1.87-.47.23-.06-.06-.23a3.87,3.87,0,0,0-1.33-2.3,4,4,0,0,0-2.54-.8,4.07,4.07,0,0,0-3.42,1.59,9,9,0,0,0-.06,8.82,3.92,3.92,0,0,0,3.36,1.54,4.39,4.39,0,0,0,2.7-.81,4.25,4.25,0,0,0,1.51-2.34l.06-.24-.22-.06Z" transform="translate(-14.2 -14.57)"/><path class="cls-3" d="M30.29,159.87l-.91-.37c-1.12-.46-1.72-.94-1.72-1.38a.84.84,0,0,1,.3-.68,1.39,1.39,0,0,1,.89-.26,1.72,1.72,0,0,1,1,.29,2.52,2.52,0,0,1,.73,1l.09.2.2-.08,1.85-.69.22-.09-.08-.22a3.76,3.76,0,0,0-1.44-1.94A4.26,4.26,0,0,0,29,155a4,4,0,0,0-2.7.9,3,3,0,0,0-1.06,2.38,3.39,3.39,0,0,0,.35,1.54,3,3,0,0,0,1,1.12,11.92,11.92,0,0,0,2.26,1l.35.13a3.68,3.68,0,0,1,1.18.64,1,1,0,0,1,.28.69,1,1,0,0,1-.39.85,1.76,1.76,0,0,1-1.14.33,1.73,1.73,0,0,1-1.1-.36,3.41,3.41,0,0,1-.89-1.22l-.1-.2-.2.09-1.85.85-.21.09.09.22a4.35,4.35,0,0,0,1.66,2.1,4.69,4.69,0,0,0,2.65.72,4.12,4.12,0,0,0,2.85-1,3.35,3.35,0,0,0,1.06-2.61,3.17,3.17,0,0,0-.62-2A5.78,5.78,0,0,0,30.29,159.87Z" transform="translate(-14.2 -14.57)"/><polygon class="cls-3" points="26.03 149.79 26.03 147.26 29.43 147.26 29.67 147.26 29.67 147.02 29.67 145.24 29.67 144.99 29.43 144.99 26.03 144.99 26.03 142.84 30.79 142.84 31.03 142.84 31.03 142.6 31.03 140.79 31.03 140.55 30.79 140.55 23.77 140.55 23.54 140.55 23.54 140.79 23.54 151.94 23.54 152.18 23.77 152.18 31.01 152.18 31.24 152.18 31.24 151.94 31.24 150.03 31.24 149.79 31.01 149.79 26.03 149.79"/><path class="cls-3" d="M53.18,155.11h-.24v6.24c0,.26,0,.52,0,.76-.2-.43-.42-.85-.64-1.27l-3.11-5.6-.07-.13H46.6v11.64H49v-6.41c0-.28,0-.54,0-.79l.06.14c.21.46.41.86.6,1.19L53,166.63l.07.12H55.3V155.11H53.18Z" transform="translate(-14.2 -14.57)"/><polygon class="cls-3" points="45.59 149.79 45.59 147.26 48.99 147.26 49.22 147.26 49.22 147.02 49.22 145.24 49.22 144.99 48.99 144.99 45.59 144.99 45.59 142.84 50.35 142.84 50.58 142.84 50.58 142.6 50.58 140.79 50.58 140.55 50.35 140.55 43.32 140.55 43.09 140.55 43.09 140.79 43.09 151.94 43.09 152.18 43.32 152.18 50.56 152.18 50.8 152.18 50.8 151.94 50.8 150.03 50.8 149.79 50.56 149.79 45.59 149.79"/><path class="cls-3" d="M72.47,161.65a2.84,2.84,0,0,0,1.34-1,3.8,3.8,0,0,0-.53-4.65,5,5,0,0,0-3.2-.88h-3.9v11.64h2.46v-4.53h1.48l2,4.39.06.14h2.71l-.17-.35Zm-.63-3a1.19,1.19,0,0,1-.37,1,2.09,2.09,0,0,1-1.29.32H68.64v-2.61h1.54a2,2,0,0,1,1.29.33A1.16,1.16,0,0,1,71.84,158.66Z" transform="translate(-14.2 -14.57)"/><path class="cls-3" d="M80.17,160.6h-.24v2.24h2a2.44,2.44,0,0,1-.59,1.24,1.7,1.7,0,0,1-1.28.53,1.66,1.66,0,0,1-1.51-.9,7.25,7.25,0,0,1,0-5.61,1.7,1.7,0,0,1,1.56-.89,1.67,1.67,0,0,1,1,.33,2.64,2.64,0,0,1,.75,1.07l.07.19.2-.05,1.84-.47.24-.06-.07-.25a4.11,4.11,0,0,0-1.47-2.22,4.65,4.65,0,0,0-6,.79,6.68,6.68,0,0,0-1.23,4.27,7.76,7.76,0,0,0,1.13,4.47,3.74,3.74,0,0,0,3.22,1.65,4,4,0,0,0,1.74-.35,3.29,3.29,0,0,0,.93-.66l.06.61,0,.22h1.88V160.6H80.17Z" transform="translate(-14.2 -14.57)"/><polygon class="cls-3" points="79.15 140.55 78.78 140.55 76.78 140.55 76.63 140.55 76.57 140.69 74.73 144.84 72.87 140.69 72.8 140.55 72.65 140.55 70.51 140.55 70.14 140.55 70.3 140.89 73.41 147.59 73.41 151.94 73.41 152.18 73.65 152.18 75.69 152.18 75.92 152.18 75.92 151.94 75.92 147.57 78.99 140.89 79.15 140.55"/><polygon class="cls-3" points="105.49 149.47 105.26 149.47 105.26 149.71 105.26 151.94 105.26 152.18 105.49 152.18 107.53 152.18 107.77 152.18 107.77 151.94 107.77 149.71 107.77 149.47 107.53 149.47 105.49 149.47"/><polygon class="cls-3" points="110 149.47 109.77 149.47 109.77 149.71 109.77 151.89 109.77 152.13 110 152.13 110.5 152.13 109.88 154.15 109.78 154.46 110.1 154.46 111.04 154.46 111.19 154.46 111.25 154.32 112.25 152.13 112.28 152.08 112.28 152.03 112.28 149.71 112.28 149.47 112.04 149.47 110 149.47"/><polygon class="cls-3" points="117.94 149.79 117.94 140.79 117.94 140.55 117.71 140.55 115.64 140.55 115.41 140.55 115.41 140.79 115.41 151.94 115.41 152.18 115.64 152.18 122.27 152.18 122.5 152.18 122.5 151.94 122.5 150.03 122.5 149.79 122.27 149.79 117.94 149.79"/><polygon class="cls-3" points="121.8 140.55 121.56 140.55 121.56 140.79 121.56 142.63 121.56 142.87 121.8 142.87 124.4 142.87 124.4 151.94 124.4 152.18 124.64 152.18 126.69 152.18 126.93 152.18 126.93 151.94 126.93 142.87 129.53 142.87 129.77 142.87 129.77 142.63 129.77 140.79 129.77 140.55 129.53 140.55 121.8 140.55"/><path class="cls-3" d="M152.51,156.59a5.13,5.13,0,0,0-4-1.48H145v11.64h3.46a5.2,5.2,0,0,0,4-1.49,6.28,6.28,0,0,0,1.35-4.37A6.19,6.19,0,0,0,152.51,156.59Zm-1.2,4.3a4.33,4.33,0,0,1-.68,2.73,2.79,2.79,0,0,1-2.23.8h-.88v-7h.85a2.82,2.82,0,0,1,2.23.81A4,4,0,0,1,151.31,160.89Z" transform="translate(-14.2 -14.57)"/><path class="cls-3" d="M104,162.91l2.09,1.13a4.65,4.65,0,0,1-1.73,2.22,4.87,4.87,0,0,1-2.74.75,4.4,4.4,0,0,1-3.65-1.54,7,7,0,0,1-1.26-4.54A6.83,6.83,0,0,1,98,156.49a4.36,4.36,0,0,1,3.59-1.62,4.6,4.6,0,0,1,2.72.79,4.33,4.33,0,0,1,1.64,2.26l-2.26,1a3.08,3.08,0,0,0-.77-1.34,1.61,1.61,0,0,0-1.15-.43,2,2,0,0,0-1.81,1,5.88,5.88,0,0,0-.58,3,5.29,5.29,0,0,0,.54,2.69,1.83,1.83,0,0,0,1.67.87,2.28,2.28,0,0,0,1.38-.42A3.4,3.4,0,0,0,104,162.91Z" transform="translate(-14.2 -14.57)"/><path class="cls-3" d="M107.22,160.93a7,7,0,0,1,1.29-4.47,4.76,4.76,0,0,1,7.14,0,8.39,8.39,0,0,1,0,8.94,4.76,4.76,0,0,1-7.14,0A7,7,0,0,1,107.22,160.93Zm2.71,0a5.69,5.69,0,0,0,.54,2.79,1.76,1.76,0,0,0,1.61.92,1.73,1.73,0,0,0,1.61-.91,7.52,7.52,0,0,0,0-5.57,1.74,1.74,0,0,0-1.62-.91,1.77,1.77,0,0,0-1.62.92A5.69,5.69,0,0,0,109.93,160.93Z" transform="translate(-14.2 -14.57)"/><path class="cls-4" d="M20.85,162.53l-.22-.07-.06.23a2,2,0,0,1-.68,1.09,1.81,1.81,0,0,1-1.16.39,1.59,1.59,0,0,1-1.49-.82,5.72,5.72,0,0,1-.51-2.77,6.32,6.32,0,0,1,.51-2.9,1.55,1.55,0,0,1,1.45-.88,1.52,1.52,0,0,1,1,.36,2.09,2.09,0,0,1,.61,1.09l.06.23.22-.06L22.5,158l.23-.06-.05-.23a3.88,3.88,0,0,0-1.34-2.3,4,4,0,0,0-2.54-.8,4,4,0,0,0-3.41,1.59,7.22,7.22,0,0,0-1.19,4.42,7.29,7.29,0,0,0,1.12,4.4,3.93,3.93,0,0,0,3.37,1.54,4.38,4.38,0,0,0,2.69-.81,4.25,4.25,0,0,0,1.51-2.34l.07-.24-.23-.06Z" transform="translate(-14.2 -14.57)"/><path class="cls-5" d="M29.88,159.45l-.91-.38c-1.12-.45-1.71-.93-1.71-1.37a.83.83,0,0,1,.29-.68,1.39,1.39,0,0,1,.89-.26,1.68,1.68,0,0,1,1,.29,2.45,2.45,0,0,1,.73,1l.1.2.2-.08,1.84-.69.22-.09-.08-.22A3.7,3.7,0,0,0,31,155.23a4.23,4.23,0,0,0-2.42-.66,4,4,0,0,0-2.71.9,3,3,0,0,0-1.06,2.38,3.23,3.23,0,0,0,.36,1.53,2.91,2.91,0,0,0,1,1.13,11.92,11.92,0,0,0,2.26,1l.35.13a3.68,3.68,0,0,1,1.18.64.94.94,0,0,1,.28.69,1.05,1.05,0,0,1-.38.85,1.8,1.8,0,0,1-1.14.33,1.74,1.74,0,0,1-1.11-.36,3.29,3.29,0,0,1-.88-1.22l-.1-.2-.21.09-1.84.85-.21.09.08.22a4.35,4.35,0,0,0,1.66,2.1,4.73,4.73,0,0,0,2.65.72,4.12,4.12,0,0,0,2.85-.95,3.35,3.35,0,0,0,1.06-2.61,3.17,3.17,0,0,0-.62-2A5.78,5.78,0,0,0,29.88,159.45Z" transform="translate(-14.2 -14.57)"/><polygon class="cls-6" points="25.62 149.37 25.62 146.84 29.03 146.84 29.26 146.84 29.26 146.6 29.26 144.82 29.26 144.57 29.03 144.57 25.62 144.57 25.62 142.42 30.38 142.42 30.62 142.42 30.62 142.18 30.62 140.37 30.62 140.13 30.38 140.13 23.36 140.13 23.13 140.13 23.13 140.37 23.13 151.52 23.13 151.76 23.36 151.76 30.6 151.76 30.84 151.76 30.84 151.52 30.84 149.62 30.84 149.37 30.6 149.37 25.62 149.37"/><path class="cls-7" d="M52.77,154.69h-.23v6.24c0,.26,0,.52,0,.76-.2-.43-.41-.86-.64-1.27l-3.11-5.6-.07-.13H46.19v11.64h2.36v-6.41c0-.28,0-.54,0-.79l.06.14c.21.46.41.86.59,1.19l3.38,5.75.07.12h2.25V154.69H52.77Z" transform="translate(-14.2 -14.57)"/><polygon class="cls-8" points="45.18 149.37 45.18 146.84 48.58 146.84 48.82 146.84 48.82 146.6 48.82 144.82 48.82 144.57 48.58 144.57 45.18 144.57 45.18 142.42 49.94 142.42 50.17 142.42 50.17 142.18 50.17 140.37 50.17 140.13 49.94 140.13 42.92 140.13 42.68 140.13 42.68 140.37 42.68 151.52 42.68 151.76 42.92 151.76 50.16 151.76 50.39 151.76 50.39 151.52 50.39 149.62 50.39 149.37 50.16 149.37 45.18 149.37"/><path class="cls-9" d="M72.06,161.23a2.75,2.75,0,0,0,1.34-1,3.8,3.8,0,0,0-.53-4.65,5,5,0,0,0-3.2-.88h-3.9v11.64h2.46V161.8h1.48l2,4.39.06.14H74.5l-.16-.35Zm-.62-3a1.19,1.19,0,0,1-.37,1,2.12,2.12,0,0,1-1.3.32H68.23v-2.61h1.54a2,2,0,0,1,1.3.33A1.16,1.16,0,0,1,71.44,158.24Z" transform="translate(-14.2 -14.57)"/><path class="cls-10" d="M79.76,160.18h-.23v2.24h2a2.44,2.44,0,0,1-.59,1.24,1.68,1.68,0,0,1-1.27.53,1.65,1.65,0,0,1-1.51-.9,5.45,5.45,0,0,1-.57-2.77,5.62,5.62,0,0,1,.57-2.84,1.7,1.7,0,0,1,1.56-.89,1.67,1.67,0,0,1,1,.33,2.55,2.55,0,0,1,.75,1.07l.08.19.19,0,1.85-.47.24-.06-.08-.25a4.11,4.11,0,0,0-1.47-2.22,4.65,4.65,0,0,0-6,.79A6.68,6.68,0,0,0,75,160.39a7.68,7.68,0,0,0,1.14,4.47,3.71,3.71,0,0,0,3.21,1.65,4.14,4.14,0,0,0,1.75-.35,3.12,3.12,0,0,0,.92-.66l.06.61,0,.22H84v-6.15H79.76Z" transform="translate(-14.2 -14.57)"/><polygon class="cls-11" points="78.75 140.13 78.37 140.13 76.38 140.13 76.23 140.13 76.16 140.27 74.33 144.42 72.46 140.27 72.4 140.13 72.25 140.13 70.1 140.13 69.73 140.13 69.89 140.47 73 147.17 73 151.52 73 151.76 73.24 151.76 75.28 151.76 75.52 151.76 75.52 151.52 75.52 147.15 78.59 140.47 78.75 140.13"/><polygon class="cls-12" points="105.08 149.05 104.85 149.05 104.85 149.29 104.85 151.52 104.85 151.76 105.08 151.76 107.12 151.76 107.36 151.76 107.36 151.52 107.36 149.29 107.36 149.05 107.12 149.05 105.08 149.05"/><polygon class="cls-13" points="109.59 149.05 109.36 149.05 109.36 149.29 109.36 151.47 109.36 151.71 109.59 151.71 110.09 151.71 109.47 153.73 109.37 154.04 109.69 154.04 110.63 154.04 110.78 154.04 110.84 153.9 111.85 151.71 111.87 151.66 111.87 151.61 111.87 149.29 111.87 149.05 111.63 149.05 109.59 149.05"/><polygon class="cls-14" points="117.54 149.37 117.54 140.37 117.54 140.13 117.3 140.13 115.23 140.13 115 140.13 115 140.37 115 151.52 115 151.76 115.23 151.76 121.86 151.76 122.1 151.76 122.1 151.52 122.1 149.62 122.1 149.37 121.86 149.37 117.54 149.37"/><polygon class="cls-15" points="121.39 140.13 121.16 140.13 121.16 140.37 121.16 142.21 121.16 142.45 121.39 142.45 123.99 142.45 123.99 151.52 123.99 151.76 124.23 151.76 126.28 151.76 126.52 151.76 126.52 151.52 126.52 142.45 129.12 142.45 129.36 142.45 129.36 142.21 129.36 140.37 129.36 140.13 129.12 140.13 121.39 140.13"/><path class="cls-16" d="M152.1,156.17a5.13,5.13,0,0,0-4-1.48H144.6v11.64h3.46a5.2,5.2,0,0,0,4-1.49,6.28,6.28,0,0,0,1.35-4.37A6.19,6.19,0,0,0,152.1,156.17Zm-1.19,4.3a4.33,4.33,0,0,1-.69,2.73,2.76,2.76,0,0,1-2.23.8h-.88v-7H148a2.82,2.82,0,0,1,2.23.81A4,4,0,0,1,150.91,160.47Z" transform="translate(-14.2 -14.57)"/><path class="cls-17" d="M103.56,162.49l2.09,1.13a4.69,4.69,0,0,1-1.72,2.22,4.9,4.9,0,0,1-2.75.75,4.41,4.41,0,0,1-3.65-1.54,7,7,0,0,1-1.25-4.54,6.89,6.89,0,0,1,1.31-4.44,4.38,4.38,0,0,1,3.59-1.62,4.65,4.65,0,0,1,2.73.79,4.37,4.37,0,0,1,1.63,2.26l-2.25,1a3.29,3.29,0,0,0-.77-1.34,1.65,1.65,0,0,0-1.16-.43,2,2,0,0,0-1.81,1,5.88,5.88,0,0,0-.58,3,5.29,5.29,0,0,0,.54,2.69,1.84,1.84,0,0,0,1.67.87,2.31,2.31,0,0,0,1.39-.42A3.38,3.38,0,0,0,103.56,162.49Z" transform="translate(-14.2 -14.57)"/><path class="cls-18" d="M106.81,160.51A7,7,0,0,1,108.1,156a4.77,4.77,0,0,1,7.15,0,8.42,8.42,0,0,1,0,8.94,4.75,4.75,0,0,1-7.14,0A7,7,0,0,1,106.81,160.51Zm2.71,0a5.69,5.69,0,0,0,.54,2.79,1.88,1.88,0,0,0,3.23,0,5.84,5.84,0,0,0,.53-2.8,5.56,5.56,0,0,0-.53-2.77,1.88,1.88,0,0,0-3.23,0A5.56,5.56,0,0,0,109.52,160.51Z" transform="translate(-14.2 -14.57)"/><g class="cls-19"><polygon class="cls-20" points="136.28 158.98 136.99 159.71 136.97 161.32 136.27 160.59 136.28 158.98"/><polygon class="cls-21" points="136.27 160.59 136.97 161.32 2.97 161.32 2.26 160.59 136.27 160.59"/><polygon class="cls-22" points="136.28 158.98 136.27 160.59 2.26 160.59 2.28 158.98 136.28 158.98"/></g><path class="cls-2" d="M115.2,17.45c-2.15,1.36-4.15,2.69-6,4l5.62-3.66Z" transform="translate(-14.2 -14.57)"/><path class="cls-23" d="M116.64,117.13c13.35-9.72,8.2-21-.1-29.79,3.8,7,4.21,15.32-4.42,24.28-20.23,21-41.91,0-41.91,0S92.46,134.73,116.64,117.13Z" transform="translate(-14.2 -14.57)"/><path class="cls-24" d="M113.65,62.14c20.4,9.47,30.28,24.44,28.71,39.12,5.47-13.49.52-29.68-21.11-43.9-28.79-18.94-6.57-39.22-4-41.16l-.11.06-2.34,1.52C106.49,24.76,87.8,50.14,113.65,62.14Z" transform="translate(-14.2 -14.57)"/><path class="cls-25" d="M117.14,16.26l.34-.23a8.24,8.24,0,0,0-2.28,1.42L117,16.32Z" transform="translate(-14.2 -14.57)"/><path class="cls-25" d="M117.14,16.26l-.13.06-1.81,1.13-.4.33Z" transform="translate(-14.2 -14.57)"/><path class="cls-26" d="M127.71,118.53c6.88-4.8,12-10.72,14.65-17.27,1.57-14.68-8.31-29.65-28.71-39.12-25.85-12-7.16-37.38,1.15-44.36l-5.62,3.66c-37.69,26.28-18.48,40.43-12.54,46,3.63,3.38,14.81,10.51,19.9,19.93,8.3,8.74,13.45,20.07.1,29.79-24.18,17.6-46.43-5.51-46.43-5.51C77,125.06,106.63,133.23,127.71,118.53Z" transform="translate(-14.2 -14.57)"/><path class="cls-2" d="M117,16.32l.24-.12.23-.17Z" transform="translate(-14.2 -14.57)"/><polygon class="cls-2" points="30.56 77.39 30.56 77.39 30.56 77.39 30.56 77.39"/><path class="cls-27" d="M97.29,134.67c-.85,0-1.69.06-2.53.08A81.59,81.59,0,0,1,83,134.23c-1.29-.16-2.58-.36-3.85-.61C64.49,130.84,51,120.34,46.15,105.39a38.69,38.69,0,0,1-1.36-4.84,34.65,34.65,0,0,1,.29-16.27h0c3-17.91,21.26-33.44,31.83-42.46,18.28-15.57,43.25-27.25,43.25-27.25-.61.25-89.9,29.89-96.36,72.54C20.15,111.2,34.71,124.68,49.27,132c.77.38,1.53.75,2.3,1.11,10.88,5.26,23.51,8.2,35.58,7.16.92-.05,1.84-.12,2.73-.19,44-3.61,53.92-34.74,53.92-34.74C133.12,127.69,113.47,133.84,97.29,134.67Z" transform="translate(-14.2 -14.57)"/><path class="cls-28" d="M99.27,130.43c-1.7,0-3.36-.05-5-.15-15.14-.7-29.81-6.58-39.86-18.29-.69-.76-1.33-1.51-1.94-2.27-7-8.71-8.78-17.32-7.42-25.44h0a34.65,34.65,0,0,0-.29,16.27,38.69,38.69,0,0,0,1.36,4.84c4.89,15,18.34,25.45,32.95,28.23,1.27.25,2.56.45,3.85.61a81.59,81.59,0,0,0,11.81.52c.84,0,1.68,0,2.53-.08,16.18-.83,35.83-7,46.51-29.29C132.59,125.29,114.53,130.35,99.27,130.43Z" transform="translate(-14.2 -14.57)"/><path class="cls-29" d="M73.54,81.74c2-.88,12.23-4.56,17.4,7.16C88.57,75.8,75.86,80.72,73.54,81.74Z" transform="translate(-14.2 -14.57)"/><path class="cls-25" d="M90.94,88.9a3.18,3.18,0,0,0,.27-.58A5.29,5.29,0,0,1,90.94,88.9Z" transform="translate(-14.2 -14.57)"/><path class="cls-2" d="M73.54,81.74c-.24.1-.37.17-.37.17S73.3,81.84,73.54,81.74Z" transform="translate(-14.2 -14.57)"/><path class="cls-30" d="M91.85,84.56c-.22-2.65-4.5-11.08-15.12-5.89a9.73,9.73,0,0,0-3.56,3.24s.13-.07.37-.17c2.32-1,15-5.94,17.4,7.16a5.29,5.29,0,0,0,.27-.58A8.42,8.42,0,0,0,91.85,84.56Z" transform="translate(-14.2 -14.57)"/><path class="cls-31" d="M83.66,75.47c2.19.39,12.69,2.93,11,15.68C99.44,78.79,86.15,75.9,83.66,75.47Z" transform="translate(-14.2 -14.57)"/><path class="cls-25" d="M94.61,91.15a3.51,3.51,0,0,0,.53-.34A5,5,0,0,1,94.61,91.15Z" transform="translate(-14.2 -14.57)"/><path class="cls-2" d="M83.66,75.47l-.39-.06Z" transform="translate(-14.2 -14.57)"/><path class="cls-32" d="M97.64,88c1.2-2.36,2-11.84-9.69-13.35a9.13,9.13,0,0,0-4.68.76l.39.06c2.49.43,15.78,3.32,11,15.68a5,5,0,0,0,.53-.34A8.06,8.06,0,0,0,97.64,88Z" transform="translate(-14.2 -14.57)"/><path class="cls-33" d="M95.47,75.79c1.64,1.54,9.17,9.51,1.06,19.29C107.05,87.33,97.34,77.53,95.47,75.79Z" transform="translate(-14.2 -14.57)"/><path class="cls-25" d="M96.53,95.08a2.83,2.83,0,0,0,.63,0C96.77,95.1,96.53,95.08,96.53,95.08Z" transform="translate(-14.2 -14.57)"/><path class="cls-2" d="M95.47,75.79l-.3-.27Z" transform="translate(-14.2 -14.57)"/><path class="cls-34" d="M100.73,94.1c2.24-1.33,7.84-8.89-1.21-16.63a9.38,9.38,0,0,0-4.35-2l.3.27c1.87,1.74,11.58,11.54,1.06,19.29,0,0,.24,0,.63,0A7.82,7.82,0,0,0,100.73,94.1Z" transform="translate(-14.2 -14.57)"/><path class="cls-35" d="M105.26,82.6c.58,2.21,2.79,13.1-9.15,16.87C109,98.75,105.93,85.11,105.26,82.6Z" transform="translate(-14.2 -14.57)"/><path class="cls-25" d="M96.11,99.47a3.06,3.06,0,0,0,.52.34C96.3,99.61,96.11,99.47,96.11,99.47Z" transform="translate(-14.2 -14.57)"/><path class="cls-2" d="M105.26,82.6c-.07-.25-.12-.39-.12-.39S105.19,82.35,105.26,82.6Z" transform="translate(-14.2 -14.57)"/><path class="cls-36" d="M100.16,101c2.58.12,11.24-3.16,7.64-14.7a9.8,9.8,0,0,0-2.66-4.05s0,.14.12.39c.67,2.51,3.76,16.15-9.15,16.87,0,0,.19.14.52.34A7.71,7.71,0,0,0,100.16,101Z" transform="translate(-14.2 -14.57)"/><path class="cls-37" d="M110,93.77c-.66,2.18-4.47,12.59-16.51,9.15C104.73,109.47,109.23,96.26,110,93.77Z" transform="translate(-14.2 -14.57)"/><path class="cls-25" d="M93.46,102.92a3.76,3.76,0,0,0,.26.59C93.55,103.15,93.46,102.92,93.46,102.92Z" transform="translate(-14.2 -14.57)"/><path class="cls-2" d="M110,93.77l.11-.4Z" transform="translate(-14.2 -14.57)"/><path class="cls-38" d="M96.1,106.43c2.12,1.53,11.13,3.56,14.1-8.17a10.18,10.18,0,0,0-.12-4.89l-.11.4c-.74,2.49-5.24,15.7-16.51,9.15,0,0,.09.23.26.59A8.27,8.27,0,0,0,96.1,106.43Z" transform="translate(-14.2 -14.57)"/><path class="cls-39" d="M108.12,105.8c-1.69,1.47-10.33,8.14-18.69-1.42C95.52,116.14,106.21,107.49,108.12,105.8Z" transform="translate(-14.2 -14.57)"/><path class="cls-25" d="M89.43,104.38a3.43,3.43,0,0,0-.08.63A5.47,5.47,0,0,1,89.43,104.38Z" transform="translate(-14.2 -14.57)"/><path class="cls-2" d="M108.12,105.8a3.55,3.55,0,0,0,.3-.28Z" transform="translate(-14.2 -14.57)"/><path class="cls-40" d="M89.83,108.79c1,2.47,7.53,9.17,16.15.93a9.87,9.87,0,0,0,2.44-4.2,3.55,3.55,0,0,1-.3.28c-1.91,1.69-12.6,10.34-18.69-1.42a5.47,5.47,0,0,0-.08.63A8.37,8.37,0,0,0,89.83,108.79Z" transform="translate(-14.2 -14.57)"/><path class="cls-41" d="M100.3,114.92c-2.2.31-13,1.14-15-11.55C84.28,116.66,97.8,115.28,100.3,114.92Z" transform="translate(-14.2 -14.57)"/><path class="cls-25" d="M85.28,103.37a3,3,0,0,0-.41.49A5,5,0,0,1,85.28,103.37Z" transform="translate(-14.2 -14.57)"/><path class="cls-2" d="M100.3,114.92l.39-.07Z" transform="translate(-14.2 -14.57)"/><path class="cls-42" d="M83.31,107.32c-.45,2.62,1.57,11.9,13.14,9.72a9.49,9.49,0,0,0,4.24-2.19l-.39.07c-2.5.36-16,1.74-15-11.55a5,5,0,0,0-.41.49A8.29,8.29,0,0,0,83.31,107.32Z" transform="translate(-14.2 -14.57)"/><path class="cls-43" d="M89,118.28c-2-1-11.53-6.21-6.66-18.06C74.53,110.88,86.65,117.2,89,118.28Z" transform="translate(-14.2 -14.57)"/><path class="cls-25" d="M82.29,100.22a3.36,3.36,0,0,0-.59.19A4.38,4.38,0,0,1,82.29,100.22Z" transform="translate(-14.2 -14.57)"/><path class="cls-2" d="M89,118.28l.36.16Z" transform="translate(-14.2 -14.57)"/><path class="cls-44" d="M78.58,102.46c-1.75,2-4.88,10.91,6,15.47a9.19,9.19,0,0,0,4.72.51l-.36-.16c-2.3-1.08-14.42-7.4-6.66-18.06a4.38,4.38,0,0,0-.59.19A7.89,7.89,0,0,0,78.58,102.46Z" transform="translate(-14.2 -14.57)"/><path class="cls-45" d="M77.62,114.83c-1.2-1.93-6.48-11.63,3.8-18.92C69.32,100.6,76.25,112.65,77.62,114.83Z" transform="translate(-14.2 -14.57)"/><path class="cls-25" d="M81.42,95.91a2.59,2.59,0,0,0-.6-.17A3.82,3.82,0,0,1,81.42,95.91Z" transform="translate(-14.2 -14.57)"/><path class="cls-2" d="M77.62,114.83c.14.22.23.34.23.34S77.76,115.05,77.62,114.83Z" transform="translate(-14.2 -14.57)"/><path class="cls-46" d="M77.12,95.74c-2.5.69-9.8,6.5-3,16.38a9.6,9.6,0,0,0,3.72,3s-.09-.12-.23-.34c-1.37-2.18-8.3-14.23,3.8-18.92a3.82,3.82,0,0,0-.6-.17A7.69,7.69,0,0,0,77.12,95.74Z" transform="translate(-14.2 -14.57)"/><path class="cls-47" d="M69.87,105.64c0-2.29.58-13.4,13.06-13.85C70.28,89,69.84,103,69.87,105.64Z" transform="translate(-14.2 -14.57)"/><path class="cls-25" d="M82.93,91.79a3.35,3.35,0,0,0-.41-.48A4.47,4.47,0,0,1,82.93,91.79Z" transform="translate(-14.2 -14.57)"/><path class="cls-2" d="M69.87,105.64c0,.26,0,.41,0,.41S69.87,105.9,69.87,105.64Z" transform="translate(-14.2 -14.57)"/><path class="cls-48" d="M79.39,89.27c-2.46-.81-11.65,0-11.06,12.16a10,10,0,0,0,1.55,4.62s0-.15,0-.41c0-2.6.41-16.6,13.06-13.85a4.47,4.47,0,0,0-.41-.48A8,8,0,0,0,79.39,89.27Z" transform="translate(-14.2 -14.57)"/><path class="cls-49" d="M68.12,93.6c1.18-1.93,7.47-11,18.23-4.45C77.11,79.83,69.45,91.39,68.12,93.6Z" transform="translate(-14.2 -14.57)"/><path class="cls-25" d="M86.35,89.15a3.82,3.82,0,0,0-.1-.63A5.94,5.94,0,0,1,86.35,89.15Z" transform="translate(-14.2 -14.57)"/><path class="cls-2" d="M68.12,93.6c-.14.22-.21.35-.21.35S68,93.82,68.12,93.6Z" transform="translate(-14.2 -14.57)"/><path class="cls-50" d="M84.68,85.06C83,83,74.82,78.66,69,89.19A10.11,10.11,0,0,0,67.91,94s.07-.13.21-.35c1.33-2.21,9-13.77,18.23-4.45a5.94,5.94,0,0,0-.1-.63A8.36,8.36,0,0,0,84.68,85.06Z" transform="translate(-14.2 -14.57)"/></svg>